SplineFontDB: 3.0
FontName: DSEG7Modern-LightItalic
FullName: DSEG7 Modern-Light Italic
FamilyName: DSEG7 Modern
Weight: Light
Copyright: Created by Keshikan(https://twitter.com/keshinomi_88pro)\nwith FontForge 2.0 (http://fontforge.sf.net)
UComments: "2014-8-31: Created." 
Version: 0.2
ItalicAngle: -5
UnderlinePosition: -100
UnderlineWidth: 50
Ascent: 1000
Descent: 0
LayerCount: 2
Layer: 0 0 "+gMyXYgAA"  1
Layer: 1 0 "+Uk2XYgAA"  0
XUID: [1021 682 390630330 14528854]
FSType: 8
OS2Version: 0
OS2_WeightWidthSlopeOnly: 0
OS2_UseTypoMetrics: 1
CreationTime: 1409488158
ModificationTime: 1483781036
PfmFamily: 17
TTFWeight: 300
TTFWidth: 5
LineGap: 90
VLineGap: 0
OS2TypoAscent: 0
OS2TypoAOffset: 1
OS2TypoDescent: 0
OS2TypoDOffset: 1
OS2TypoLinegap: 90
OS2WinAscent: 0
OS2WinAOffset: 1
OS2WinDescent: 0
OS2WinDOffset: 1
HheadAscent: 0
HheadAOffset: 1
HheadDescent: 0
HheadDOffset: 1
OS2Vendor: 'PfEd'
MarkAttachClasses: 1
DEI: 91125
LangName: 1033 "Created by Keshikan+AAoA-with FontForge 2.0 (http://fontforge.sf.net)" "" "Light Italic" "" "" "Version 0.2" "" "" "" "Keshikan(Twitter:@keshinomi_88pro)" "" "" "http://www.keshikan.net" "" "" "" "" "" "" "DSEG.7 12:34" 
Encoding: ISO8859-1
UnicodeInterp: none
NameList: Adobe Glyph List
DisplaySize: -24
AntiAlias: 1
FitToEm: 1
WinInfo: 0 24 9
BeginPrivate: 0
EndPrivate
TeXData: 1 0 -1005505 346030 173015 115343 529302 1048576 115343 783286 444596 497025 792723 393216 433062 380633 303038 157286 324010 404750 52429 2506097 1059062 262144
BeginChars: 256 67

StartChar: zero
Encoding: 48 48 0
Width: 816
VWidth: 200
Flags: HW
LayerCount: 2
Fore
SplineSet
181 735 m 1
 163 531 l 1
 145 502 l 1
 101 529 l 1
 139 959 l 2
 139 964 141 968 143 972 c 2
 199 938 l 1
 181 735 l 1
671 498 m 1
 715 471 l 1
 677 41 l 2
 677 36 675 32 673 28 c 2
 617 62 l 1
 617 62 l 1
 635 265 l 1
 653 469 l 1
 653 469 l 1
 671 498 l 1
757 959 m 2
 717 500 l 1
 717 495 l 1
 683 515 l 1
 683 515 l 1
 673 522 l 1
 658 531 l 1
 676 735 l 1
 690 897 l 1
 749 986 l 1
 755 979 758 969 757 959 c 2
240 938 m 1
 156 990 l 1
 164 996 174 1000 184 1000 c 2
 452 1000 l 1
 720 1000 l 2
 725 1000 729 1000 733 998 c 2
 694 938 l 1
 694 938 l 1
 446 938 l 1
 240 938 l 1
576 62 m 1
 660 10 l 1
 652 4 642 0 632 0 c 2
 364 0 l 1
 105 0 l 1
 146 62 l 1
 370 62 l 1
 576 62 l 1
122 62 m 1
 83 2 l 1
 68 8 57 23 59 41 c 2
 99 500 l 1
 99 505 l 1
 138 482 l 1
 150 474 l 1
 150 474 l 1
 158 469 l 1
 140 265 l 1
 122 62 l 1
 122 62 l 1
EndSplineSet
EndChar

StartChar: eight
Encoding: 56 56 1
Width: 816
VWidth: 200
Flags: HW
LayerCount: 2
Fore
SplineSet
181 735 m 1
 163 531 l 1
 145 502 l 1
 101 529 l 1
 139 959 l 2
 139 964 141 968 143 972 c 2
 199 938 l 1
 181 735 l 1
671 498 m 1
 715 471 l 1
 677 41 l 2
 677 36 675 32 673 28 c 2
 617 62 l 1
 617 62 l 1
 635 265 l 1
 653 469 l 1
 653 469 l 1
 671 498 l 1
757 959 m 2
 717 500 l 1
 717 495 l 1
 683 515 l 1
 683 515 l 1
 673 522 l 1
 658 531 l 1
 676 735 l 1
 690 897 l 1
 749 986 l 1
 755 979 758 969 757 959 c 2
629 469 m 1
 405 469 l 1
 199 469 l 1
 161 492 l 1
 187 531 l 1
 411 531 l 1
 617 531 l 1
 655 508 l 1
 629 469 l 1
240 938 m 1
 156 990 l 1
 164 996 174 1000 184 1000 c 2
 452 1000 l 1
 720 1000 l 2
 725 1000 729 1000 733 998 c 2
 694 938 l 1
 694 938 l 1
 446 938 l 1
 240 938 l 1
576 62 m 1
 660 10 l 1
 652 4 642 0 632 0 c 2
 364 0 l 1
 105 0 l 1
 146 62 l 1
 370 62 l 1
 576 62 l 1
122 62 m 1
 83 2 l 1
 68 8 57 23 59 41 c 2
 99 500 l 1
 99 505 l 1
 138 482 l 1
 150 474 l 1
 150 474 l 1
 158 469 l 1
 140 265 l 1
 122 62 l 1
 122 62 l 1
EndSplineSet
EndChar

StartChar: one
Encoding: 49 49 2
Width: 816
VWidth: 200
Flags: HW
LayerCount: 2
Fore
SplineSet
671 498 m 1
 715 471 l 1
 677 41 l 2
 677 36 675 32 673 28 c 2
 617 62 l 1
 617 62 l 1
 635 265 l 1
 653 469 l 1
 653 469 l 1
 671 498 l 1
757 959 m 2
 717 500 l 1
 717 495 l 1
 683 515 l 1
 683 515 l 1
 673 522 l 1
 658 531 l 1
 676 735 l 1
 690 897 l 1
 749 986 l 1
 755 979 758 969 757 959 c 2
EndSplineSet
EndChar

StartChar: two
Encoding: 50 50 3
Width: 816
VWidth: 200
Flags: HW
LayerCount: 2
Fore
SplineSet
757 959 m 2
 717 500 l 1
 717 495 l 1
 683 515 l 1
 683 515 l 1
 673 522 l 1
 658 531 l 1
 676 735 l 1
 690 897 l 1
 749 986 l 1
 755 979 758 969 757 959 c 2
629 469 m 1
 405 469 l 1
 199 469 l 1
 161 492 l 1
 187 531 l 1
 411 531 l 1
 617 531 l 1
 655 508 l 1
 629 469 l 1
240 938 m 1
 156 990 l 1
 164 996 174 1000 184 1000 c 2
 452 1000 l 1
 720 1000 l 2
 725 1000 729 1000 733 998 c 2
 694 938 l 1
 694 938 l 1
 446 938 l 1
 240 938 l 1
576 62 m 1
 660 10 l 1
 652 4 642 0 632 0 c 2
 364 0 l 1
 105 0 l 1
 146 62 l 1
 370 62 l 1
 576 62 l 1
122 62 m 1
 83 2 l 1
 68 8 57 23 59 41 c 2
 99 500 l 1
 99 505 l 1
 138 482 l 1
 150 474 l 1
 150 474 l 1
 158 469 l 1
 140 265 l 1
 122 62 l 1
 122 62 l 1
EndSplineSet
EndChar

StartChar: three
Encoding: 51 51 4
Width: 816
VWidth: 200
Flags: HW
LayerCount: 2
Fore
SplineSet
671 498 m 1
 715 471 l 1
 677 41 l 2
 677 36 675 32 673 28 c 2
 617 62 l 1
 617 62 l 1
 635 265 l 1
 653 469 l 1
 653 469 l 1
 671 498 l 1
757 959 m 2
 717 500 l 1
 717 495 l 1
 683 515 l 1
 683 515 l 1
 673 522 l 1
 658 531 l 1
 676 735 l 1
 690 897 l 1
 749 986 l 1
 755 979 758 969 757 959 c 2
629 469 m 1
 405 469 l 1
 199 469 l 1
 161 492 l 1
 187 531 l 1
 411 531 l 1
 617 531 l 1
 655 508 l 1
 629 469 l 1
240 938 m 1
 156 990 l 1
 164 996 174 1000 184 1000 c 2
 452 1000 l 1
 720 1000 l 2
 725 1000 729 1000 733 998 c 2
 694 938 l 1
 694 938 l 1
 446 938 l 1
 240 938 l 1
576 62 m 1
 660 10 l 1
 652 4 642 0 632 0 c 2
 364 0 l 1
 105 0 l 1
 146 62 l 1
 370 62 l 1
 576 62 l 1
EndSplineSet
EndChar

StartChar: four
Encoding: 52 52 5
Width: 816
VWidth: 200
Flags: HW
LayerCount: 2
Fore
SplineSet
181 735 m 1
 163 531 l 1
 145 502 l 1
 101 529 l 1
 139 959 l 2
 139 964 141 968 143 972 c 2
 199 938 l 1
 181 735 l 1
671 498 m 1
 715 471 l 1
 677 41 l 2
 677 36 675 32 673 28 c 2
 617 62 l 1
 617 62 l 1
 635 265 l 1
 653 469 l 1
 653 469 l 1
 671 498 l 1
757 959 m 2
 717 500 l 1
 717 495 l 1
 683 515 l 1
 683 515 l 1
 673 522 l 1
 658 531 l 1
 676 735 l 1
 690 897 l 1
 749 986 l 1
 755 979 758 969 757 959 c 2
629 469 m 1
 405 469 l 1
 199 469 l 1
 161 492 l 1
 187 531 l 1
 411 531 l 1
 617 531 l 1
 655 508 l 1
 629 469 l 1
EndSplineSet
EndChar

StartChar: five
Encoding: 53 53 6
Width: 816
VWidth: 200
Flags: HW
LayerCount: 2
Fore
SplineSet
181 735 m 1
 163 531 l 1
 145 502 l 1
 101 529 l 1
 139 959 l 2
 139 964 141 968 143 972 c 2
 199 938 l 1
 181 735 l 1
671 498 m 1
 715 471 l 1
 677 41 l 2
 677 36 675 32 673 28 c 2
 617 62 l 1
 617 62 l 1
 635 265 l 1
 653 469 l 1
 653 469 l 1
 671 498 l 1
629 469 m 1
 405 469 l 1
 199 469 l 1
 161 492 l 1
 187 531 l 1
 411 531 l 1
 617 531 l 1
 655 508 l 1
 629 469 l 1
240 938 m 1
 156 990 l 1
 164 996 174 1000 184 1000 c 2
 452 1000 l 1
 720 1000 l 2
 725 1000 729 1000 733 998 c 2
 694 938 l 1
 694 938 l 1
 446 938 l 1
 240 938 l 1
576 62 m 1
 660 10 l 1
 652 4 642 0 632 0 c 2
 364 0 l 1
 105 0 l 1
 146 62 l 1
 370 62 l 1
 576 62 l 1
EndSplineSet
EndChar

StartChar: six
Encoding: 54 54 7
Width: 816
VWidth: 200
Flags: HW
LayerCount: 2
Fore
SplineSet
181 735 m 1
 163 531 l 1
 145 502 l 1
 101 529 l 1
 139 959 l 2
 139 964 141 968 143 972 c 2
 199 938 l 1
 181 735 l 1
671 498 m 1
 715 471 l 1
 677 41 l 2
 677 36 675 32 673 28 c 2
 617 62 l 1
 617 62 l 1
 635 265 l 1
 653 469 l 1
 653 469 l 1
 671 498 l 1
629 469 m 1
 405 469 l 1
 199 469 l 1
 161 492 l 1
 187 531 l 1
 411 531 l 1
 617 531 l 1
 655 508 l 1
 629 469 l 1
240 938 m 1
 156 990 l 1
 164 996 174 1000 184 1000 c 2
 452 1000 l 1
 720 1000 l 2
 725 1000 729 1000 733 998 c 2
 694 938 l 1
 694 938 l 1
 446 938 l 1
 240 938 l 1
576 62 m 1
 660 10 l 1
 652 4 642 0 632 0 c 2
 364 0 l 1
 105 0 l 1
 146 62 l 1
 370 62 l 1
 576 62 l 1
122 62 m 1
 83 2 l 1
 68 8 57 23 59 41 c 2
 99 500 l 1
 99 505 l 1
 138 482 l 1
 150 474 l 1
 150 474 l 1
 158 469 l 1
 140 265 l 1
 122 62 l 1
 122 62 l 1
EndSplineSet
EndChar

StartChar: seven
Encoding: 55 55 8
Width: 816
VWidth: 200
Flags: HW
LayerCount: 2
Fore
SplineSet
181 735 m 1
 163 531 l 1
 145 502 l 1
 101 529 l 1
 139 959 l 2
 139 964 141 968 143 972 c 2
 199 938 l 1
 181 735 l 1
671 498 m 1
 715 471 l 1
 677 41 l 2
 677 36 675 32 673 28 c 2
 617 62 l 1
 617 62 l 1
 635 265 l 1
 653 469 l 1
 653 469 l 1
 671 498 l 1
757 959 m 2
 717 500 l 1
 717 495 l 1
 683 515 l 1
 683 515 l 1
 673 522 l 1
 658 531 l 1
 676 735 l 1
 690 897 l 1
 749 986 l 1
 755 979 758 969 757 959 c 2
240 938 m 1
 156 990 l 1
 164 996 174 1000 184 1000 c 2
 452 1000 l 1
 720 1000 l 2
 725 1000 729 1000 733 998 c 2
 694 938 l 1
 694 938 l 1
 446 938 l 1
 240 938 l 1
EndSplineSet
EndChar

StartChar: nine
Encoding: 57 57 9
Width: 816
VWidth: 200
Flags: HW
LayerCount: 2
Fore
SplineSet
181 735 m 1
 163 531 l 1
 145 502 l 1
 101 529 l 1
 139 959 l 2
 139 964 141 968 143 972 c 2
 199 938 l 1
 181 735 l 1
671 498 m 1
 715 471 l 1
 677 41 l 2
 677 36 675 32 673 28 c 2
 617 62 l 1
 617 62 l 1
 635 265 l 1
 653 469 l 1
 653 469 l 1
 671 498 l 1
757 959 m 2
 717 500 l 1
 717 495 l 1
 683 515 l 1
 683 515 l 1
 673 522 l 1
 658 531 l 1
 676 735 l 1
 690 897 l 1
 749 986 l 1
 755 979 758 969 757 959 c 2
629 469 m 1
 405 469 l 1
 199 469 l 1
 161 492 l 1
 187 531 l 1
 411 531 l 1
 617 531 l 1
 655 508 l 1
 629 469 l 1
240 938 m 1
 156 990 l 1
 164 996 174 1000 184 1000 c 2
 452 1000 l 1
 720 1000 l 2
 725 1000 729 1000 733 998 c 2
 694 938 l 1
 694 938 l 1
 446 938 l 1
 240 938 l 1
576 62 m 1
 660 10 l 1
 652 4 642 0 632 0 c 2
 364 0 l 1
 105 0 l 1
 146 62 l 1
 370 62 l 1
 576 62 l 1
EndSplineSet
EndChar

StartChar: a
Encoding: 97 97 10
Width: 816
VWidth: 200
Flags: HW
LayerCount: 2
Fore
SplineSet
181 735 m 1
 163 531 l 1
 145 502 l 1
 101 529 l 1
 139 959 l 2
 139 964 141 968 143 972 c 2
 199 938 l 1
 181 735 l 1
671 498 m 1
 715 471 l 1
 677 41 l 2
 677 36 675 32 673 28 c 2
 617 62 l 1
 617 62 l 1
 635 265 l 1
 653 469 l 1
 653 469 l 1
 671 498 l 1
757 959 m 2
 717 500 l 1
 717 495 l 1
 683 515 l 1
 683 515 l 1
 673 522 l 1
 658 531 l 1
 676 735 l 1
 690 897 l 1
 749 986 l 1
 755 979 758 969 757 959 c 2
629 469 m 1
 405 469 l 1
 199 469 l 1
 161 492 l 1
 187 531 l 1
 411 531 l 1
 617 531 l 1
 655 508 l 1
 629 469 l 1
240 938 m 1
 156 990 l 1
 164 996 174 1000 184 1000 c 2
 452 1000 l 1
 720 1000 l 2
 725 1000 729 1000 733 998 c 2
 694 938 l 1
 694 938 l 1
 446 938 l 1
 240 938 l 1
122 62 m 1
 83 2 l 1
 68 8 57 23 59 41 c 2
 99 500 l 1
 99 505 l 1
 138 482 l 1
 150 474 l 1
 150 474 l 1
 158 469 l 1
 140 265 l 1
 122 62 l 1
 122 62 l 1
EndSplineSet
EndChar

StartChar: b
Encoding: 98 98 11
Width: 816
VWidth: 200
Flags: HW
LayerCount: 2
Fore
SplineSet
181 735 m 1
 163 531 l 1
 145 502 l 1
 101 529 l 1
 139 959 l 2
 139 964 141 968 143 972 c 2
 199 938 l 1
 181 735 l 1
671 498 m 1
 715 471 l 1
 677 41 l 2
 677 36 675 32 673 28 c 2
 617 62 l 1
 617 62 l 1
 635 265 l 1
 653 469 l 1
 653 469 l 1
 671 498 l 1
629 469 m 1
 405 469 l 1
 199 469 l 1
 161 492 l 1
 187 531 l 1
 411 531 l 1
 617 531 l 1
 655 508 l 1
 629 469 l 1
576 62 m 1
 660 10 l 1
 652 4 642 0 632 0 c 2
 364 0 l 1
 105 0 l 1
 146 62 l 1
 370 62 l 1
 576 62 l 1
122 62 m 1
 83 2 l 1
 68 8 57 23 59 41 c 2
 99 500 l 1
 99 505 l 1
 138 482 l 1
 150 474 l 1
 150 474 l 1
 158 469 l 1
 140 265 l 1
 122 62 l 1
 122 62 l 1
EndSplineSet
EndChar

StartChar: c
Encoding: 99 99 12
Width: 816
VWidth: 200
Flags: HW
LayerCount: 2
Fore
SplineSet
629 469 m 1
 405 469 l 1
 199 469 l 1
 161 492 l 1
 187 531 l 1
 411 531 l 1
 617 531 l 1
 655 508 l 1
 629 469 l 1
576 62 m 1
 660 10 l 1
 652 4 642 0 632 0 c 2
 364 0 l 1
 105 0 l 1
 146 62 l 1
 370 62 l 1
 576 62 l 1
122 62 m 1
 83 2 l 1
 68 8 57 23 59 41 c 2
 99 500 l 1
 99 505 l 1
 138 482 l 1
 150 474 l 1
 150 474 l 1
 158 469 l 1
 140 265 l 1
 122 62 l 1
 122 62 l 1
EndSplineSet
EndChar

StartChar: d
Encoding: 100 100 13
Width: 816
VWidth: 200
Flags: HW
LayerCount: 2
Fore
SplineSet
671 498 m 1
 715 471 l 1
 677 41 l 2
 677 36 675 32 673 28 c 2
 617 62 l 1
 617 62 l 1
 635 265 l 1
 653 469 l 1
 653 469 l 1
 671 498 l 1
757 959 m 2
 717 500 l 1
 717 495 l 1
 683 515 l 1
 683 515 l 1
 673 522 l 1
 658 531 l 1
 676 735 l 1
 690 897 l 1
 749 986 l 1
 755 979 758 969 757 959 c 2
629 469 m 1
 405 469 l 1
 199 469 l 1
 161 492 l 1
 187 531 l 1
 411 531 l 1
 617 531 l 1
 655 508 l 1
 629 469 l 1
576 62 m 1
 660 10 l 1
 652 4 642 0 632 0 c 2
 364 0 l 1
 105 0 l 1
 146 62 l 1
 370 62 l 1
 576 62 l 1
122 62 m 1
 83 2 l 1
 68 8 57 23 59 41 c 2
 99 500 l 1
 99 505 l 1
 138 482 l 1
 150 474 l 1
 150 474 l 1
 158 469 l 1
 140 265 l 1
 122 62 l 1
 122 62 l 1
EndSplineSet
EndChar

StartChar: e
Encoding: 101 101 14
Width: 816
VWidth: 200
Flags: HW
LayerCount: 2
Fore
SplineSet
181 735 m 1
 163 531 l 1
 145 502 l 1
 101 529 l 1
 139 959 l 2
 139 964 141 968 143 972 c 2
 199 938 l 1
 181 735 l 1
629 469 m 1
 405 469 l 1
 199 469 l 1
 161 492 l 1
 187 531 l 1
 411 531 l 1
 617 531 l 1
 655 508 l 1
 629 469 l 1
240 938 m 1
 156 990 l 1
 164 996 174 1000 184 1000 c 2
 452 1000 l 1
 720 1000 l 2
 725 1000 729 1000 733 998 c 2
 694 938 l 1
 694 938 l 1
 446 938 l 1
 240 938 l 1
576 62 m 1
 660 10 l 1
 652 4 642 0 632 0 c 2
 364 0 l 1
 105 0 l 1
 146 62 l 1
 370 62 l 1
 576 62 l 1
122 62 m 1
 83 2 l 1
 68 8 57 23 59 41 c 2
 99 500 l 1
 99 505 l 1
 138 482 l 1
 150 474 l 1
 150 474 l 1
 158 469 l 1
 140 265 l 1
 122 62 l 1
 122 62 l 1
EndSplineSet
EndChar

StartChar: f
Encoding: 102 102 15
Width: 816
VWidth: 200
Flags: HW
LayerCount: 2
Fore
SplineSet
181 735 m 1
 163 531 l 1
 145 502 l 1
 101 529 l 1
 139 959 l 2
 139 964 141 968 143 972 c 2
 199 938 l 1
 181 735 l 1
629 469 m 1
 405 469 l 1
 199 469 l 1
 161 492 l 1
 187 531 l 1
 411 531 l 1
 617 531 l 1
 655 508 l 1
 629 469 l 1
240 938 m 1
 156 990 l 1
 164 996 174 1000 184 1000 c 2
 452 1000 l 1
 720 1000 l 2
 725 1000 729 1000 733 998 c 2
 694 938 l 1
 694 938 l 1
 446 938 l 1
 240 938 l 1
122 62 m 1
 83 2 l 1
 68 8 57 23 59 41 c 2
 99 500 l 1
 99 505 l 1
 138 482 l 1
 150 474 l 1
 150 474 l 1
 158 469 l 1
 140 265 l 1
 122 62 l 1
 122 62 l 1
EndSplineSet
EndChar

StartChar: g
Encoding: 103 103 16
Width: 816
VWidth: 200
Flags: HW
LayerCount: 2
Fore
SplineSet
181 735 m 1
 163 531 l 1
 145 502 l 1
 101 529 l 1
 139 959 l 2
 139 964 141 968 143 972 c 2
 199 938 l 1
 181 735 l 1
671 498 m 1
 715 471 l 1
 677 41 l 2
 677 36 675 32 673 28 c 2
 617 62 l 1
 617 62 l 1
 635 265 l 1
 653 469 l 1
 653 469 l 1
 671 498 l 1
240 938 m 1
 156 990 l 1
 164 996 174 1000 184 1000 c 2
 452 1000 l 1
 720 1000 l 2
 725 1000 729 1000 733 998 c 2
 694 938 l 1
 694 938 l 1
 446 938 l 1
 240 938 l 1
576 62 m 1
 660 10 l 1
 652 4 642 0 632 0 c 2
 364 0 l 1
 105 0 l 1
 146 62 l 1
 370 62 l 1
 576 62 l 1
122 62 m 1
 83 2 l 1
 68 8 57 23 59 41 c 2
 99 500 l 1
 99 505 l 1
 138 482 l 1
 150 474 l 1
 150 474 l 1
 158 469 l 1
 140 265 l 1
 122 62 l 1
 122 62 l 1
EndSplineSet
EndChar

StartChar: h
Encoding: 104 104 17
Width: 816
VWidth: 200
Flags: HW
LayerCount: 2
Fore
SplineSet
181 735 m 1
 163 531 l 1
 145 502 l 1
 101 529 l 1
 139 959 l 2
 139 964 141 968 143 972 c 2
 199 938 l 1
 181 735 l 1
671 498 m 1
 715 471 l 1
 677 41 l 2
 677 36 675 32 673 28 c 2
 617 62 l 1
 617 62 l 1
 635 265 l 1
 653 469 l 1
 653 469 l 1
 671 498 l 1
629 469 m 1
 405 469 l 1
 199 469 l 1
 161 492 l 1
 187 531 l 1
 411 531 l 1
 617 531 l 1
 655 508 l 1
 629 469 l 1
122 62 m 1
 83 2 l 1
 68 8 57 23 59 41 c 2
 99 500 l 1
 99 505 l 1
 138 482 l 1
 150 474 l 1
 150 474 l 1
 158 469 l 1
 140 265 l 1
 122 62 l 1
 122 62 l 1
EndSplineSet
EndChar

StartChar: i
Encoding: 105 105 18
Width: 816
VWidth: 200
Flags: HW
LayerCount: 2
Fore
SplineSet
671 498 m 1
 715 471 l 1
 677 41 l 2
 677 36 675 32 673 28 c 2
 617 62 l 1
 617 62 l 1
 635 265 l 1
 653 469 l 1
 653 469 l 1
 671 498 l 1
EndSplineSet
EndChar

StartChar: j
Encoding: 106 106 19
Width: 816
VWidth: 200
Flags: HW
LayerCount: 2
Fore
SplineSet
671 498 m 1
 715 471 l 1
 677 41 l 2
 677 36 675 32 673 28 c 2
 617 62 l 1
 617 62 l 1
 635 265 l 1
 653 469 l 1
 653 469 l 1
 671 498 l 1
757 959 m 2
 717 500 l 1
 717 495 l 1
 683 515 l 1
 683 515 l 1
 673 522 l 1
 658 531 l 1
 676 735 l 1
 690 897 l 1
 749 986 l 1
 755 979 758 969 757 959 c 2
576 62 m 1
 660 10 l 1
 652 4 642 0 632 0 c 2
 364 0 l 1
 105 0 l 1
 146 62 l 1
 370 62 l 1
 576 62 l 1
122 62 m 1
 83 2 l 1
 68 8 57 23 59 41 c 2
 99 500 l 1
 99 505 l 1
 138 482 l 1
 150 474 l 1
 150 474 l 1
 158 469 l 1
 140 265 l 1
 122 62 l 1
 122 62 l 1
EndSplineSet
EndChar

StartChar: k
Encoding: 107 107 20
Width: 816
VWidth: 200
Flags: HW
LayerCount: 2
Fore
SplineSet
181 735 m 1
 163 531 l 1
 145 502 l 1
 101 529 l 1
 139 959 l 2
 139 964 141 968 143 972 c 2
 199 938 l 1
 181 735 l 1
671 498 m 1
 715 471 l 1
 677 41 l 2
 677 36 675 32 673 28 c 2
 617 62 l 1
 617 62 l 1
 635 265 l 1
 653 469 l 1
 653 469 l 1
 671 498 l 1
629 469 m 1
 405 469 l 1
 199 469 l 1
 161 492 l 1
 187 531 l 1
 411 531 l 1
 617 531 l 1
 655 508 l 1
 629 469 l 1
240 938 m 1
 156 990 l 1
 164 996 174 1000 184 1000 c 2
 452 1000 l 1
 720 1000 l 2
 725 1000 729 1000 733 998 c 2
 694 938 l 1
 694 938 l 1
 446 938 l 1
 240 938 l 1
122 62 m 1
 83 2 l 1
 68 8 57 23 59 41 c 2
 99 500 l 1
 99 505 l 1
 138 482 l 1
 150 474 l 1
 150 474 l 1
 158 469 l 1
 140 265 l 1
 122 62 l 1
 122 62 l 1
EndSplineSet
EndChar

StartChar: l
Encoding: 108 108 21
Width: 816
VWidth: 200
Flags: HW
LayerCount: 2
Fore
SplineSet
181 735 m 1
 163 531 l 1
 145 502 l 1
 101 529 l 1
 139 959 l 2
 139 964 141 968 143 972 c 2
 199 938 l 1
 181 735 l 1
576 62 m 1
 660 10 l 1
 652 4 642 0 632 0 c 2
 364 0 l 1
 105 0 l 1
 146 62 l 1
 370 62 l 1
 576 62 l 1
122 62 m 1
 83 2 l 1
 68 8 57 23 59 41 c 2
 99 500 l 1
 99 505 l 1
 138 482 l 1
 150 474 l 1
 150 474 l 1
 158 469 l 1
 140 265 l 1
 122 62 l 1
 122 62 l 1
EndSplineSet
EndChar

StartChar: m
Encoding: 109 109 22
Width: 816
VWidth: 200
Flags: HW
LayerCount: 2
Fore
SplineSet
181 735 m 1
 163 531 l 1
 145 502 l 1
 101 529 l 1
 139 959 l 2
 139 964 141 968 143 972 c 2
 199 938 l 1
 181 735 l 1
671 498 m 1
 715 471 l 1
 677 41 l 2
 677 36 675 32 673 28 c 2
 617 62 l 1
 617 62 l 1
 635 265 l 1
 653 469 l 1
 653 469 l 1
 671 498 l 1
757 959 m 2
 717 500 l 1
 717 495 l 1
 683 515 l 1
 683 515 l 1
 673 522 l 1
 658 531 l 1
 676 735 l 1
 690 897 l 1
 749 986 l 1
 755 979 758 969 757 959 c 2
240 938 m 1
 156 990 l 1
 164 996 174 1000 184 1000 c 2
 452 1000 l 1
 720 1000 l 2
 725 1000 729 1000 733 998 c 2
 694 938 l 1
 694 938 l 1
 446 938 l 1
 240 938 l 1
122 62 m 1
 83 2 l 1
 68 8 57 23 59 41 c 2
 99 500 l 1
 99 505 l 1
 138 482 l 1
 150 474 l 1
 150 474 l 1
 158 469 l 1
 140 265 l 1
 122 62 l 1
 122 62 l 1
EndSplineSet
EndChar

StartChar: n
Encoding: 110 110 23
Width: 816
VWidth: 200
Flags: HW
LayerCount: 2
Fore
SplineSet
671 498 m 1
 715 471 l 1
 677 41 l 2
 677 36 675 32 673 28 c 2
 617 62 l 1
 617 62 l 1
 635 265 l 1
 653 469 l 1
 653 469 l 1
 671 498 l 1
629 469 m 1
 405 469 l 1
 199 469 l 1
 161 492 l 1
 187 531 l 1
 411 531 l 1
 617 531 l 1
 655 508 l 1
 629 469 l 1
122 62 m 1
 83 2 l 1
 68 8 57 23 59 41 c 2
 99 500 l 1
 99 505 l 1
 138 482 l 1
 150 474 l 1
 150 474 l 1
 158 469 l 1
 140 265 l 1
 122 62 l 1
 122 62 l 1
EndSplineSet
EndChar

StartChar: o
Encoding: 111 111 24
Width: 816
VWidth: 200
Flags: HW
LayerCount: 2
Fore
SplineSet
671 498 m 1
 715 471 l 1
 677 41 l 2
 677 36 675 32 673 28 c 2
 617 62 l 1
 617 62 l 1
 635 265 l 1
 653 469 l 1
 653 469 l 1
 671 498 l 1
629 469 m 1
 405 469 l 1
 199 469 l 1
 161 492 l 1
 187 531 l 1
 411 531 l 1
 617 531 l 1
 655 508 l 1
 629 469 l 1
576 62 m 1
 660 10 l 1
 652 4 642 0 632 0 c 2
 364 0 l 1
 105 0 l 1
 146 62 l 1
 370 62 l 1
 576 62 l 1
122 62 m 1
 83 2 l 1
 68 8 57 23 59 41 c 2
 99 500 l 1
 99 505 l 1
 138 482 l 1
 150 474 l 1
 150 474 l 1
 158 469 l 1
 140 265 l 1
 122 62 l 1
 122 62 l 1
EndSplineSet
EndChar

StartChar: p
Encoding: 112 112 25
Width: 816
VWidth: 200
Flags: HW
LayerCount: 2
Fore
SplineSet
181 735 m 1
 163 531 l 1
 145 502 l 1
 101 529 l 1
 139 959 l 2
 139 964 141 968 143 972 c 2
 199 938 l 1
 181 735 l 1
757 959 m 2
 717 500 l 1
 717 495 l 1
 683 515 l 1
 683 515 l 1
 673 522 l 1
 658 531 l 1
 676 735 l 1
 690 897 l 1
 749 986 l 1
 755 979 758 969 757 959 c 2
629 469 m 1
 405 469 l 1
 199 469 l 1
 161 492 l 1
 187 531 l 1
 411 531 l 1
 617 531 l 1
 655 508 l 1
 629 469 l 1
240 938 m 1
 156 990 l 1
 164 996 174 1000 184 1000 c 2
 452 1000 l 1
 720 1000 l 2
 725 1000 729 1000 733 998 c 2
 694 938 l 1
 694 938 l 1
 446 938 l 1
 240 938 l 1
122 62 m 1
 83 2 l 1
 68 8 57 23 59 41 c 2
 99 500 l 1
 99 505 l 1
 138 482 l 1
 150 474 l 1
 150 474 l 1
 158 469 l 1
 140 265 l 1
 122 62 l 1
 122 62 l 1
EndSplineSet
EndChar

StartChar: q
Encoding: 113 113 26
Width: 816
VWidth: 200
Flags: HW
LayerCount: 2
Fore
SplineSet
181 735 m 1
 163 531 l 1
 145 502 l 1
 101 529 l 1
 139 959 l 2
 139 964 141 968 143 972 c 2
 199 938 l 1
 181 735 l 1
671 498 m 1
 715 471 l 1
 677 41 l 2
 677 36 675 32 673 28 c 2
 617 62 l 1
 617 62 l 1
 635 265 l 1
 653 469 l 1
 653 469 l 1
 671 498 l 1
757 959 m 2
 717 500 l 1
 717 495 l 1
 683 515 l 1
 683 515 l 1
 673 522 l 1
 658 531 l 1
 676 735 l 1
 690 897 l 1
 749 986 l 1
 755 979 758 969 757 959 c 2
629 469 m 1
 405 469 l 1
 199 469 l 1
 161 492 l 1
 187 531 l 1
 411 531 l 1
 617 531 l 1
 655 508 l 1
 629 469 l 1
240 938 m 1
 156 990 l 1
 164 996 174 1000 184 1000 c 2
 452 1000 l 1
 720 1000 l 2
 725 1000 729 1000 733 998 c 2
 694 938 l 1
 694 938 l 1
 446 938 l 1
 240 938 l 1
EndSplineSet
EndChar

StartChar: r
Encoding: 114 114 27
Width: 816
VWidth: 200
Flags: HW
LayerCount: 2
Fore
SplineSet
629 469 m 1
 405 469 l 1
 199 469 l 1
 161 492 l 1
 187 531 l 1
 411 531 l 1
 617 531 l 1
 655 508 l 1
 629 469 l 1
122 62 m 1
 83 2 l 1
 68 8 57 23 59 41 c 2
 99 500 l 1
 99 505 l 1
 138 482 l 1
 150 474 l 1
 150 474 l 1
 158 469 l 1
 140 265 l 1
 122 62 l 1
 122 62 l 1
EndSplineSet
EndChar

StartChar: s
Encoding: 115 115 28
Width: 816
VWidth: 200
Flags: HW
LayerCount: 2
Fore
SplineSet
181 735 m 1
 163 531 l 1
 145 502 l 1
 101 529 l 1
 139 959 l 2
 139 964 141 968 143 972 c 2
 199 938 l 1
 181 735 l 1
671 498 m 1
 715 471 l 1
 677 41 l 2
 677 36 675 32 673 28 c 2
 617 62 l 1
 617 62 l 1
 635 265 l 1
 653 469 l 1
 653 469 l 1
 671 498 l 1
629 469 m 1
 405 469 l 1
 199 469 l 1
 161 492 l 1
 187 531 l 1
 411 531 l 1
 617 531 l 1
 655 508 l 1
 629 469 l 1
576 62 m 1
 660 10 l 1
 652 4 642 0 632 0 c 2
 364 0 l 1
 105 0 l 1
 146 62 l 1
 370 62 l 1
 576 62 l 1
EndSplineSet
EndChar

StartChar: t
Encoding: 116 116 29
Width: 816
VWidth: 200
Flags: HW
LayerCount: 2
Fore
SplineSet
181 735 m 1
 163 531 l 1
 145 502 l 1
 101 529 l 1
 139 959 l 2
 139 964 141 968 143 972 c 2
 199 938 l 1
 181 735 l 1
629 469 m 1
 405 469 l 1
 199 469 l 1
 161 492 l 1
 187 531 l 1
 411 531 l 1
 617 531 l 1
 655 508 l 1
 629 469 l 1
576 62 m 1
 660 10 l 1
 652 4 642 0 632 0 c 2
 364 0 l 1
 105 0 l 1
 146 62 l 1
 370 62 l 1
 576 62 l 1
122 62 m 1
 83 2 l 1
 68 8 57 23 59 41 c 2
 99 500 l 1
 99 505 l 1
 138 482 l 1
 150 474 l 1
 150 474 l 1
 158 469 l 1
 140 265 l 1
 122 62 l 1
 122 62 l 1
EndSplineSet
EndChar

StartChar: u
Encoding: 117 117 30
Width: 816
VWidth: 200
Flags: HW
LayerCount: 2
Fore
SplineSet
671 498 m 1
 715 471 l 1
 677 41 l 2
 677 36 675 32 673 28 c 2
 617 62 l 1
 617 62 l 1
 635 265 l 1
 653 469 l 1
 653 469 l 1
 671 498 l 1
576 62 m 1
 660 10 l 1
 652 4 642 0 632 0 c 2
 364 0 l 1
 105 0 l 1
 146 62 l 1
 370 62 l 1
 576 62 l 1
122 62 m 1
 83 2 l 1
 68 8 57 23 59 41 c 2
 99 500 l 1
 99 505 l 1
 138 482 l 1
 150 474 l 1
 150 474 l 1
 158 469 l 1
 140 265 l 1
 122 62 l 1
 122 62 l 1
EndSplineSet
EndChar

StartChar: v
Encoding: 118 118 31
Width: 816
VWidth: 200
Flags: HW
LayerCount: 2
Fore
SplineSet
181 735 m 1
 163 531 l 1
 145 502 l 1
 101 529 l 1
 139 959 l 2
 139 964 141 968 143 972 c 2
 199 938 l 1
 181 735 l 1
671 498 m 1
 715 471 l 1
 677 41 l 2
 677 36 675 32 673 28 c 2
 617 62 l 1
 617 62 l 1
 635 265 l 1
 653 469 l 1
 653 469 l 1
 671 498 l 1
757 959 m 2
 717 500 l 1
 717 495 l 1
 683 515 l 1
 683 515 l 1
 673 522 l 1
 658 531 l 1
 676 735 l 1
 690 897 l 1
 749 986 l 1
 755 979 758 969 757 959 c 2
576 62 m 1
 660 10 l 1
 652 4 642 0 632 0 c 2
 364 0 l 1
 105 0 l 1
 146 62 l 1
 370 62 l 1
 576 62 l 1
122 62 m 1
 83 2 l 1
 68 8 57 23 59 41 c 2
 99 500 l 1
 99 505 l 1
 138 482 l 1
 150 474 l 1
 150 474 l 1
 158 469 l 1
 140 265 l 1
 122 62 l 1
 122 62 l 1
EndSplineSet
EndChar

StartChar: w
Encoding: 119 119 32
Width: 816
VWidth: 200
Flags: HW
LayerCount: 2
Fore
SplineSet
181 735 m 1
 163 531 l 1
 145 502 l 1
 101 529 l 1
 139 959 l 2
 139 964 141 968 143 972 c 2
 199 938 l 1
 181 735 l 1
671 498 m 1
 715 471 l 1
 677 41 l 2
 677 36 675 32 673 28 c 2
 617 62 l 1
 617 62 l 1
 635 265 l 1
 653 469 l 1
 653 469 l 1
 671 498 l 1
757 959 m 2
 717 500 l 1
 717 495 l 1
 683 515 l 1
 683 515 l 1
 673 522 l 1
 658 531 l 1
 676 735 l 1
 690 897 l 1
 749 986 l 1
 755 979 758 969 757 959 c 2
629 469 m 1
 405 469 l 1
 199 469 l 1
 161 492 l 1
 187 531 l 1
 411 531 l 1
 617 531 l 1
 655 508 l 1
 629 469 l 1
576 62 m 1
 660 10 l 1
 652 4 642 0 632 0 c 2
 364 0 l 1
 105 0 l 1
 146 62 l 1
 370 62 l 1
 576 62 l 1
122 62 m 1
 83 2 l 1
 68 8 57 23 59 41 c 2
 99 500 l 1
 99 505 l 1
 138 482 l 1
 150 474 l 1
 150 474 l 1
 158 469 l 1
 140 265 l 1
 122 62 l 1
 122 62 l 1
EndSplineSet
EndChar

StartChar: x
Encoding: 120 120 33
Width: 816
VWidth: 200
Flags: HW
LayerCount: 2
Fore
SplineSet
181 735 m 1
 163 531 l 1
 145 502 l 1
 101 529 l 1
 139 959 l 2
 139 964 141 968 143 972 c 2
 199 938 l 1
 181 735 l 1
671 498 m 1
 715 471 l 1
 677 41 l 2
 677 36 675 32 673 28 c 2
 617 62 l 1
 617 62 l 1
 635 265 l 1
 653 469 l 1
 653 469 l 1
 671 498 l 1
757 959 m 2
 717 500 l 1
 717 495 l 1
 683 515 l 1
 683 515 l 1
 673 522 l 1
 658 531 l 1
 676 735 l 1
 690 897 l 1
 749 986 l 1
 755 979 758 969 757 959 c 2
629 469 m 1
 405 469 l 1
 199 469 l 1
 161 492 l 1
 187 531 l 1
 411 531 l 1
 617 531 l 1
 655 508 l 1
 629 469 l 1
122 62 m 1
 83 2 l 1
 68 8 57 23 59 41 c 2
 99 500 l 1
 99 505 l 1
 138 482 l 1
 150 474 l 1
 150 474 l 1
 158 469 l 1
 140 265 l 1
 122 62 l 1
 122 62 l 1
EndSplineSet
EndChar

StartChar: y
Encoding: 121 121 34
Width: 816
VWidth: 200
Flags: HW
LayerCount: 2
Fore
SplineSet
181 735 m 1
 163 531 l 1
 145 502 l 1
 101 529 l 1
 139 959 l 2
 139 964 141 968 143 972 c 2
 199 938 l 1
 181 735 l 1
671 498 m 1
 715 471 l 1
 677 41 l 2
 677 36 675 32 673 28 c 2
 617 62 l 1
 617 62 l 1
 635 265 l 1
 653 469 l 1
 653 469 l 1
 671 498 l 1
757 959 m 2
 717 500 l 1
 717 495 l 1
 683 515 l 1
 683 515 l 1
 673 522 l 1
 658 531 l 1
 676 735 l 1
 690 897 l 1
 749 986 l 1
 755 979 758 969 757 959 c 2
629 469 m 1
 405 469 l 1
 199 469 l 1
 161 492 l 1
 187 531 l 1
 411 531 l 1
 617 531 l 1
 655 508 l 1
 629 469 l 1
576 62 m 1
 660 10 l 1
 652 4 642 0 632 0 c 2
 364 0 l 1
 105 0 l 1
 146 62 l 1
 370 62 l 1
 576 62 l 1
EndSplineSet
EndChar

StartChar: z
Encoding: 122 122 35
Width: 816
VWidth: 200
Flags: HW
LayerCount: 2
Fore
SplineSet
757 959 m 2
 717 500 l 1
 717 495 l 1
 683 515 l 1
 683 515 l 1
 673 522 l 1
 658 531 l 1
 676 735 l 1
 690 897 l 1
 749 986 l 1
 755 979 758 969 757 959 c 2
240 938 m 1
 156 990 l 1
 164 996 174 1000 184 1000 c 2
 452 1000 l 1
 720 1000 l 2
 725 1000 729 1000 733 998 c 2
 694 938 l 1
 694 938 l 1
 446 938 l 1
 240 938 l 1
576 62 m 1
 660 10 l 1
 652 4 642 0 632 0 c 2
 364 0 l 1
 105 0 l 1
 146 62 l 1
 370 62 l 1
 576 62 l 1
122 62 m 1
 83 2 l 1
 68 8 57 23 59 41 c 2
 99 500 l 1
 99 505 l 1
 138 482 l 1
 150 474 l 1
 150 474 l 1
 158 469 l 1
 140 265 l 1
 122 62 l 1
 122 62 l 1
EndSplineSet
EndChar

StartChar: A
Encoding: 65 65 36
Width: 816
VWidth: 200
Flags: HW
LayerCount: 2
Fore
SplineSet
181 735 m 1
 163 531 l 1
 145 502 l 1
 101 529 l 1
 139 959 l 2
 139 964 141 968 143 972 c 2
 199 938 l 1
 181 735 l 1
671 498 m 1
 715 471 l 1
 677 41 l 2
 677 36 675 32 673 28 c 2
 617 62 l 1
 617 62 l 1
 635 265 l 1
 653 469 l 1
 653 469 l 1
 671 498 l 1
757 959 m 2
 717 500 l 1
 717 495 l 1
 683 515 l 1
 683 515 l 1
 673 522 l 1
 658 531 l 1
 676 735 l 1
 690 897 l 1
 749 986 l 1
 755 979 758 969 757 959 c 2
629 469 m 1
 405 469 l 1
 199 469 l 1
 161 492 l 1
 187 531 l 1
 411 531 l 1
 617 531 l 1
 655 508 l 1
 629 469 l 1
240 938 m 1
 156 990 l 1
 164 996 174 1000 184 1000 c 2
 452 1000 l 1
 720 1000 l 2
 725 1000 729 1000 733 998 c 2
 694 938 l 1
 694 938 l 1
 446 938 l 1
 240 938 l 1
122 62 m 1
 83 2 l 1
 68 8 57 23 59 41 c 2
 99 500 l 1
 99 505 l 1
 138 482 l 1
 150 474 l 1
 150 474 l 1
 158 469 l 1
 140 265 l 1
 122 62 l 1
 122 62 l 1
EndSplineSet
EndChar

StartChar: B
Encoding: 66 66 37
Width: 816
VWidth: 200
Flags: HW
LayerCount: 2
Fore
SplineSet
181 735 m 1
 163 531 l 1
 145 502 l 1
 101 529 l 1
 139 959 l 2
 139 964 141 968 143 972 c 2
 199 938 l 1
 181 735 l 1
671 498 m 1
 715 471 l 1
 677 41 l 2
 677 36 675 32 673 28 c 2
 617 62 l 1
 617 62 l 1
 635 265 l 1
 653 469 l 1
 653 469 l 1
 671 498 l 1
629 469 m 1
 405 469 l 1
 199 469 l 1
 161 492 l 1
 187 531 l 1
 411 531 l 1
 617 531 l 1
 655 508 l 1
 629 469 l 1
576 62 m 1
 660 10 l 1
 652 4 642 0 632 0 c 2
 364 0 l 1
 105 0 l 1
 146 62 l 1
 370 62 l 1
 576 62 l 1
122 62 m 1
 83 2 l 1
 68 8 57 23 59 41 c 2
 99 500 l 1
 99 505 l 1
 138 482 l 1
 150 474 l 1
 150 474 l 1
 158 469 l 1
 140 265 l 1
 122 62 l 1
 122 62 l 1
EndSplineSet
EndChar

StartChar: C
Encoding: 67 67 38
Width: 816
VWidth: 200
Flags: HW
LayerCount: 2
Fore
SplineSet
629 469 m 1
 405 469 l 1
 199 469 l 1
 161 492 l 1
 187 531 l 1
 411 531 l 1
 617 531 l 1
 655 508 l 1
 629 469 l 1
576 62 m 1
 660 10 l 1
 652 4 642 0 632 0 c 2
 364 0 l 1
 105 0 l 1
 146 62 l 1
 370 62 l 1
 576 62 l 1
122 62 m 1
 83 2 l 1
 68 8 57 23 59 41 c 2
 99 500 l 1
 99 505 l 1
 138 482 l 1
 150 474 l 1
 150 474 l 1
 158 469 l 1
 140 265 l 1
 122 62 l 1
 122 62 l 1
EndSplineSet
EndChar

StartChar: D
Encoding: 68 68 39
Width: 816
VWidth: 200
Flags: HW
LayerCount: 2
Fore
SplineSet
671 498 m 1
 715 471 l 1
 677 41 l 2
 677 36 675 32 673 28 c 2
 617 62 l 1
 617 62 l 1
 635 265 l 1
 653 469 l 1
 653 469 l 1
 671 498 l 1
757 959 m 2
 717 500 l 1
 717 495 l 1
 683 515 l 1
 683 515 l 1
 673 522 l 1
 658 531 l 1
 676 735 l 1
 690 897 l 1
 749 986 l 1
 755 979 758 969 757 959 c 2
629 469 m 1
 405 469 l 1
 199 469 l 1
 161 492 l 1
 187 531 l 1
 411 531 l 1
 617 531 l 1
 655 508 l 1
 629 469 l 1
576 62 m 1
 660 10 l 1
 652 4 642 0 632 0 c 2
 364 0 l 1
 105 0 l 1
 146 62 l 1
 370 62 l 1
 576 62 l 1
122 62 m 1
 83 2 l 1
 68 8 57 23 59 41 c 2
 99 500 l 1
 99 505 l 1
 138 482 l 1
 150 474 l 1
 150 474 l 1
 158 469 l 1
 140 265 l 1
 122 62 l 1
 122 62 l 1
EndSplineSet
EndChar

StartChar: E
Encoding: 69 69 40
Width: 816
VWidth: 200
Flags: HW
LayerCount: 2
Fore
SplineSet
181 735 m 1
 163 531 l 1
 145 502 l 1
 101 529 l 1
 139 959 l 2
 139 964 141 968 143 972 c 2
 199 938 l 1
 181 735 l 1
629 469 m 1
 405 469 l 1
 199 469 l 1
 161 492 l 1
 187 531 l 1
 411 531 l 1
 617 531 l 1
 655 508 l 1
 629 469 l 1
240 938 m 1
 156 990 l 1
 164 996 174 1000 184 1000 c 2
 452 1000 l 1
 720 1000 l 2
 725 1000 729 1000 733 998 c 2
 694 938 l 1
 694 938 l 1
 446 938 l 1
 240 938 l 1
576 62 m 1
 660 10 l 1
 652 4 642 0 632 0 c 2
 364 0 l 1
 105 0 l 1
 146 62 l 1
 370 62 l 1
 576 62 l 1
122 62 m 1
 83 2 l 1
 68 8 57 23 59 41 c 2
 99 500 l 1
 99 505 l 1
 138 482 l 1
 150 474 l 1
 150 474 l 1
 158 469 l 1
 140 265 l 1
 122 62 l 1
 122 62 l 1
EndSplineSet
EndChar

StartChar: F
Encoding: 70 70 41
Width: 816
VWidth: 200
Flags: HW
LayerCount: 2
Fore
SplineSet
181 735 m 1
 163 531 l 1
 145 502 l 1
 101 529 l 1
 139 959 l 2
 139 964 141 968 143 972 c 2
 199 938 l 1
 181 735 l 1
629 469 m 1
 405 469 l 1
 199 469 l 1
 161 492 l 1
 187 531 l 1
 411 531 l 1
 617 531 l 1
 655 508 l 1
 629 469 l 1
240 938 m 1
 156 990 l 1
 164 996 174 1000 184 1000 c 2
 452 1000 l 1
 720 1000 l 2
 725 1000 729 1000 733 998 c 2
 694 938 l 1
 694 938 l 1
 446 938 l 1
 240 938 l 1
122 62 m 1
 83 2 l 1
 68 8 57 23 59 41 c 2
 99 500 l 1
 99 505 l 1
 138 482 l 1
 150 474 l 1
 150 474 l 1
 158 469 l 1
 140 265 l 1
 122 62 l 1
 122 62 l 1
EndSplineSet
EndChar

StartChar: G
Encoding: 71 71 42
Width: 816
VWidth: 200
Flags: HW
LayerCount: 2
Fore
SplineSet
181 735 m 1
 163 531 l 1
 145 502 l 1
 101 529 l 1
 139 959 l 2
 139 964 141 968 143 972 c 2
 199 938 l 1
 181 735 l 1
671 498 m 1
 715 471 l 1
 677 41 l 2
 677 36 675 32 673 28 c 2
 617 62 l 1
 617 62 l 1
 635 265 l 1
 653 469 l 1
 653 469 l 1
 671 498 l 1
240 938 m 1
 156 990 l 1
 164 996 174 1000 184 1000 c 2
 452 1000 l 1
 720 1000 l 2
 725 1000 729 1000 733 998 c 2
 694 938 l 1
 694 938 l 1
 446 938 l 1
 240 938 l 1
576 62 m 1
 660 10 l 1
 652 4 642 0 632 0 c 2
 364 0 l 1
 105 0 l 1
 146 62 l 1
 370 62 l 1
 576 62 l 1
122 62 m 1
 83 2 l 1
 68 8 57 23 59 41 c 2
 99 500 l 1
 99 505 l 1
 138 482 l 1
 150 474 l 1
 150 474 l 1
 158 469 l 1
 140 265 l 1
 122 62 l 1
 122 62 l 1
EndSplineSet
EndChar

StartChar: H
Encoding: 72 72 43
Width: 816
VWidth: 200
Flags: HW
LayerCount: 2
Fore
SplineSet
181 735 m 1
 163 531 l 1
 145 502 l 1
 101 529 l 1
 139 959 l 2
 139 964 141 968 143 972 c 2
 199 938 l 1
 181 735 l 1
671 498 m 1
 715 471 l 1
 677 41 l 2
 677 36 675 32 673 28 c 2
 617 62 l 1
 617 62 l 1
 635 265 l 1
 653 469 l 1
 653 469 l 1
 671 498 l 1
629 469 m 1
 405 469 l 1
 199 469 l 1
 161 492 l 1
 187 531 l 1
 411 531 l 1
 617 531 l 1
 655 508 l 1
 629 469 l 1
122 62 m 1
 83 2 l 1
 68 8 57 23 59 41 c 2
 99 500 l 1
 99 505 l 1
 138 482 l 1
 150 474 l 1
 150 474 l 1
 158 469 l 1
 140 265 l 1
 122 62 l 1
 122 62 l 1
EndSplineSet
EndChar

StartChar: I
Encoding: 73 73 44
Width: 816
VWidth: 200
Flags: HW
LayerCount: 2
Fore
SplineSet
671 498 m 1
 715 471 l 1
 677 41 l 2
 677 36 675 32 673 28 c 2
 617 62 l 1
 617 62 l 1
 635 265 l 1
 653 469 l 1
 653 469 l 1
 671 498 l 1
EndSplineSet
EndChar

StartChar: J
Encoding: 74 74 45
Width: 816
VWidth: 200
Flags: HW
LayerCount: 2
Fore
SplineSet
671 498 m 1
 715 471 l 1
 677 41 l 2
 677 36 675 32 673 28 c 2
 617 62 l 1
 617 62 l 1
 635 265 l 1
 653 469 l 1
 653 469 l 1
 671 498 l 1
757 959 m 2
 717 500 l 1
 717 495 l 1
 683 515 l 1
 683 515 l 1
 673 522 l 1
 658 531 l 1
 676 735 l 1
 690 897 l 1
 749 986 l 1
 755 979 758 969 757 959 c 2
576 62 m 1
 660 10 l 1
 652 4 642 0 632 0 c 2
 364 0 l 1
 105 0 l 1
 146 62 l 1
 370 62 l 1
 576 62 l 1
122 62 m 1
 83 2 l 1
 68 8 57 23 59 41 c 2
 99 500 l 1
 99 505 l 1
 138 482 l 1
 150 474 l 1
 150 474 l 1
 158 469 l 1
 140 265 l 1
 122 62 l 1
 122 62 l 1
EndSplineSet
EndChar

StartChar: K
Encoding: 75 75 46
Width: 816
VWidth: 200
Flags: HW
LayerCount: 2
Fore
SplineSet
181 735 m 1
 163 531 l 1
 145 502 l 1
 101 529 l 1
 139 959 l 2
 139 964 141 968 143 972 c 2
 199 938 l 1
 181 735 l 1
671 498 m 1
 715 471 l 1
 677 41 l 2
 677 36 675 32 673 28 c 2
 617 62 l 1
 617 62 l 1
 635 265 l 1
 653 469 l 1
 653 469 l 1
 671 498 l 1
629 469 m 1
 405 469 l 1
 199 469 l 1
 161 492 l 1
 187 531 l 1
 411 531 l 1
 617 531 l 1
 655 508 l 1
 629 469 l 1
240 938 m 1
 156 990 l 1
 164 996 174 1000 184 1000 c 2
 452 1000 l 1
 720 1000 l 2
 725 1000 729 1000 733 998 c 2
 694 938 l 1
 694 938 l 1
 446 938 l 1
 240 938 l 1
122 62 m 1
 83 2 l 1
 68 8 57 23 59 41 c 2
 99 500 l 1
 99 505 l 1
 138 482 l 1
 150 474 l 1
 150 474 l 1
 158 469 l 1
 140 265 l 1
 122 62 l 1
 122 62 l 1
EndSplineSet
EndChar

StartChar: L
Encoding: 76 76 47
Width: 816
VWidth: 200
Flags: HW
LayerCount: 2
Fore
SplineSet
181 735 m 1
 163 531 l 1
 145 502 l 1
 101 529 l 1
 139 959 l 2
 139 964 141 968 143 972 c 2
 199 938 l 1
 181 735 l 1
576 62 m 1
 660 10 l 1
 652 4 642 0 632 0 c 2
 364 0 l 1
 105 0 l 1
 146 62 l 1
 370 62 l 1
 576 62 l 1
122 62 m 1
 83 2 l 1
 68 8 57 23 59 41 c 2
 99 500 l 1
 99 505 l 1
 138 482 l 1
 150 474 l 1
 150 474 l 1
 158 469 l 1
 140 265 l 1
 122 62 l 1
 122 62 l 1
EndSplineSet
EndChar

StartChar: M
Encoding: 77 77 48
Width: 816
VWidth: 200
Flags: HW
LayerCount: 2
Fore
SplineSet
181 735 m 1
 163 531 l 1
 145 502 l 1
 101 529 l 1
 139 959 l 2
 139 964 141 968 143 972 c 2
 199 938 l 1
 181 735 l 1
671 498 m 1
 715 471 l 1
 677 41 l 2
 677 36 675 32 673 28 c 2
 617 62 l 1
 617 62 l 1
 635 265 l 1
 653 469 l 1
 653 469 l 1
 671 498 l 1
757 959 m 2
 717 500 l 1
 717 495 l 1
 683 515 l 1
 683 515 l 1
 673 522 l 1
 658 531 l 1
 676 735 l 1
 690 897 l 1
 749 986 l 1
 755 979 758 969 757 959 c 2
240 938 m 1
 156 990 l 1
 164 996 174 1000 184 1000 c 2
 452 1000 l 1
 720 1000 l 2
 725 1000 729 1000 733 998 c 2
 694 938 l 1
 694 938 l 1
 446 938 l 1
 240 938 l 1
122 62 m 1
 83 2 l 1
 68 8 57 23 59 41 c 2
 99 500 l 1
 99 505 l 1
 138 482 l 1
 150 474 l 1
 150 474 l 1
 158 469 l 1
 140 265 l 1
 122 62 l 1
 122 62 l 1
EndSplineSet
EndChar

StartChar: N
Encoding: 78 78 49
Width: 816
VWidth: 200
Flags: HW
LayerCount: 2
Fore
SplineSet
671 498 m 1
 715 471 l 1
 677 41 l 2
 677 36 675 32 673 28 c 2
 617 62 l 1
 617 62 l 1
 635 265 l 1
 653 469 l 1
 653 469 l 1
 671 498 l 1
629 469 m 1
 405 469 l 1
 199 469 l 1
 161 492 l 1
 187 531 l 1
 411 531 l 1
 617 531 l 1
 655 508 l 1
 629 469 l 1
122 62 m 1
 83 2 l 1
 68 8 57 23 59 41 c 2
 99 500 l 1
 99 505 l 1
 138 482 l 1
 150 474 l 1
 150 474 l 1
 158 469 l 1
 140 265 l 1
 122 62 l 1
 122 62 l 1
EndSplineSet
EndChar

StartChar: O
Encoding: 79 79 50
Width: 816
VWidth: 200
Flags: HW
LayerCount: 2
Fore
SplineSet
671 498 m 1
 715 471 l 1
 677 41 l 2
 677 36 675 32 673 28 c 2
 617 62 l 1
 617 62 l 1
 635 265 l 1
 653 469 l 1
 653 469 l 1
 671 498 l 1
629 469 m 1
 405 469 l 1
 199 469 l 1
 161 492 l 1
 187 531 l 1
 411 531 l 1
 617 531 l 1
 655 508 l 1
 629 469 l 1
576 62 m 1
 660 10 l 1
 652 4 642 0 632 0 c 2
 364 0 l 1
 105 0 l 1
 146 62 l 1
 370 62 l 1
 576 62 l 1
122 62 m 1
 83 2 l 1
 68 8 57 23 59 41 c 2
 99 500 l 1
 99 505 l 1
 138 482 l 1
 150 474 l 1
 150 474 l 1
 158 469 l 1
 140 265 l 1
 122 62 l 1
 122 62 l 1
EndSplineSet
EndChar

StartChar: P
Encoding: 80 80 51
Width: 816
VWidth: 200
Flags: HW
LayerCount: 2
Fore
SplineSet
181 735 m 1
 163 531 l 1
 145 502 l 1
 101 529 l 1
 139 959 l 2
 139 964 141 968 143 972 c 2
 199 938 l 1
 181 735 l 1
757 959 m 2
 717 500 l 1
 717 495 l 1
 683 515 l 1
 683 515 l 1
 673 522 l 1
 658 531 l 1
 676 735 l 1
 690 897 l 1
 749 986 l 1
 755 979 758 969 757 959 c 2
629 469 m 1
 405 469 l 1
 199 469 l 1
 161 492 l 1
 187 531 l 1
 411 531 l 1
 617 531 l 1
 655 508 l 1
 629 469 l 1
240 938 m 1
 156 990 l 1
 164 996 174 1000 184 1000 c 2
 452 1000 l 1
 720 1000 l 2
 725 1000 729 1000 733 998 c 2
 694 938 l 1
 694 938 l 1
 446 938 l 1
 240 938 l 1
122 62 m 1
 83 2 l 1
 68 8 57 23 59 41 c 2
 99 500 l 1
 99 505 l 1
 138 482 l 1
 150 474 l 1
 150 474 l 1
 158 469 l 1
 140 265 l 1
 122 62 l 1
 122 62 l 1
EndSplineSet
EndChar

StartChar: Q
Encoding: 81 81 52
Width: 816
VWidth: 200
Flags: HW
LayerCount: 2
Fore
SplineSet
181 735 m 1
 163 531 l 1
 145 502 l 1
 101 529 l 1
 139 959 l 2
 139 964 141 968 143 972 c 2
 199 938 l 1
 181 735 l 1
671 498 m 1
 715 471 l 1
 677 41 l 2
 677 36 675 32 673 28 c 2
 617 62 l 1
 617 62 l 1
 635 265 l 1
 653 469 l 1
 653 469 l 1
 671 498 l 1
757 959 m 2
 717 500 l 1
 717 495 l 1
 683 515 l 1
 683 515 l 1
 673 522 l 1
 658 531 l 1
 676 735 l 1
 690 897 l 1
 749 986 l 1
 755 979 758 969 757 959 c 2
629 469 m 1
 405 469 l 1
 199 469 l 1
 161 492 l 1
 187 531 l 1
 411 531 l 1
 617 531 l 1
 655 508 l 1
 629 469 l 1
240 938 m 1
 156 990 l 1
 164 996 174 1000 184 1000 c 2
 452 1000 l 1
 720 1000 l 2
 725 1000 729 1000 733 998 c 2
 694 938 l 1
 694 938 l 1
 446 938 l 1
 240 938 l 1
EndSplineSet
EndChar

StartChar: R
Encoding: 82 82 53
Width: 816
VWidth: 200
Flags: HW
LayerCount: 2
Fore
SplineSet
629 469 m 1
 405 469 l 1
 199 469 l 1
 161 492 l 1
 187 531 l 1
 411 531 l 1
 617 531 l 1
 655 508 l 1
 629 469 l 1
122 62 m 1
 83 2 l 1
 68 8 57 23 59 41 c 2
 99 500 l 1
 99 505 l 1
 138 482 l 1
 150 474 l 1
 150 474 l 1
 158 469 l 1
 140 265 l 1
 122 62 l 1
 122 62 l 1
EndSplineSet
EndChar

StartChar: S
Encoding: 83 83 54
Width: 816
VWidth: 200
Flags: HW
LayerCount: 2
Fore
SplineSet
181 735 m 1
 163 531 l 1
 145 502 l 1
 101 529 l 1
 139 959 l 2
 139 964 141 968 143 972 c 2
 199 938 l 1
 181 735 l 1
671 498 m 1
 715 471 l 1
 677 41 l 2
 677 36 675 32 673 28 c 2
 617 62 l 1
 617 62 l 1
 635 265 l 1
 653 469 l 1
 653 469 l 1
 671 498 l 1
629 469 m 1
 405 469 l 1
 199 469 l 1
 161 492 l 1
 187 531 l 1
 411 531 l 1
 617 531 l 1
 655 508 l 1
 629 469 l 1
576 62 m 1
 660 10 l 1
 652 4 642 0 632 0 c 2
 364 0 l 1
 105 0 l 1
 146 62 l 1
 370 62 l 1
 576 62 l 1
EndSplineSet
EndChar

StartChar: T
Encoding: 84 84 55
Width: 816
VWidth: 200
Flags: HW
LayerCount: 2
Fore
SplineSet
181 735 m 1
 163 531 l 1
 145 502 l 1
 101 529 l 1
 139 959 l 2
 139 964 141 968 143 972 c 2
 199 938 l 1
 181 735 l 1
629 469 m 1
 405 469 l 1
 199 469 l 1
 161 492 l 1
 187 531 l 1
 411 531 l 1
 617 531 l 1
 655 508 l 1
 629 469 l 1
576 62 m 1
 660 10 l 1
 652 4 642 0 632 0 c 2
 364 0 l 1
 105 0 l 1
 146 62 l 1
 370 62 l 1
 576 62 l 1
122 62 m 1
 83 2 l 1
 68 8 57 23 59 41 c 2
 99 500 l 1
 99 505 l 1
 138 482 l 1
 150 474 l 1
 150 474 l 1
 158 469 l 1
 140 265 l 1
 122 62 l 1
 122 62 l 1
EndSplineSet
EndChar

StartChar: U
Encoding: 85 85 56
Width: 816
VWidth: 200
Flags: HW
LayerCount: 2
Fore
SplineSet
671 498 m 1
 715 471 l 1
 677 41 l 2
 677 36 675 32 673 28 c 2
 617 62 l 1
 617 62 l 1
 635 265 l 1
 653 469 l 1
 653 469 l 1
 671 498 l 1
576 62 m 1
 660 10 l 1
 652 4 642 0 632 0 c 2
 364 0 l 1
 105 0 l 1
 146 62 l 1
 370 62 l 1
 576 62 l 1
122 62 m 1
 83 2 l 1
 68 8 57 23 59 41 c 2
 99 500 l 1
 99 505 l 1
 138 482 l 1
 150 474 l 1
 150 474 l 1
 158 469 l 1
 140 265 l 1
 122 62 l 1
 122 62 l 1
EndSplineSet
EndChar

StartChar: V
Encoding: 86 86 57
Width: 816
VWidth: 200
Flags: HW
LayerCount: 2
Fore
SplineSet
181 735 m 1
 163 531 l 1
 145 502 l 1
 101 529 l 1
 139 959 l 2
 139 964 141 968 143 972 c 2
 199 938 l 1
 181 735 l 1
671 498 m 1
 715 471 l 1
 677 41 l 2
 677 36 675 32 673 28 c 2
 617 62 l 1
 617 62 l 1
 635 265 l 1
 653 469 l 1
 653 469 l 1
 671 498 l 1
757 959 m 2
 717 500 l 1
 717 495 l 1
 683 515 l 1
 683 515 l 1
 673 522 l 1
 658 531 l 1
 676 735 l 1
 690 897 l 1
 749 986 l 1
 755 979 758 969 757 959 c 2
576 62 m 1
 660 10 l 1
 652 4 642 0 632 0 c 2
 364 0 l 1
 105 0 l 1
 146 62 l 1
 370 62 l 1
 576 62 l 1
122 62 m 1
 83 2 l 1
 68 8 57 23 59 41 c 2
 99 500 l 1
 99 505 l 1
 138 482 l 1
 150 474 l 1
 150 474 l 1
 158 469 l 1
 140 265 l 1
 122 62 l 1
 122 62 l 1
EndSplineSet
EndChar

StartChar: W
Encoding: 87 87 58
Width: 816
VWidth: 200
Flags: HW
LayerCount: 2
Fore
SplineSet
181 735 m 1
 163 531 l 1
 145 502 l 1
 101 529 l 1
 139 959 l 2
 139 964 141 968 143 972 c 2
 199 938 l 1
 181 735 l 1
671 498 m 1
 715 471 l 1
 677 41 l 2
 677 36 675 32 673 28 c 2
 617 62 l 1
 617 62 l 1
 635 265 l 1
 653 469 l 1
 653 469 l 1
 671 498 l 1
757 959 m 2
 717 500 l 1
 717 495 l 1
 683 515 l 1
 683 515 l 1
 673 522 l 1
 658 531 l 1
 676 735 l 1
 690 897 l 1
 749 986 l 1
 755 979 758 969 757 959 c 2
629 469 m 1
 405 469 l 1
 199 469 l 1
 161 492 l 1
 187 531 l 1
 411 531 l 1
 617 531 l 1
 655 508 l 1
 629 469 l 1
576 62 m 1
 660 10 l 1
 652 4 642 0 632 0 c 2
 364 0 l 1
 105 0 l 1
 146 62 l 1
 370 62 l 1
 576 62 l 1
122 62 m 1
 83 2 l 1
 68 8 57 23 59 41 c 2
 99 500 l 1
 99 505 l 1
 138 482 l 1
 150 474 l 1
 150 474 l 1
 158 469 l 1
 140 265 l 1
 122 62 l 1
 122 62 l 1
EndSplineSet
EndChar

StartChar: X
Encoding: 88 88 59
Width: 816
VWidth: 200
Flags: HW
LayerCount: 2
Fore
SplineSet
181 735 m 1
 163 531 l 1
 145 502 l 1
 101 529 l 1
 139 959 l 2
 139 964 141 968 143 972 c 2
 199 938 l 1
 181 735 l 1
671 498 m 1
 715 471 l 1
 677 41 l 2
 677 36 675 32 673 28 c 2
 617 62 l 1
 617 62 l 1
 635 265 l 1
 653 469 l 1
 653 469 l 1
 671 498 l 1
757 959 m 2
 717 500 l 1
 717 495 l 1
 683 515 l 1
 683 515 l 1
 673 522 l 1
 658 531 l 1
 676 735 l 1
 690 897 l 1
 749 986 l 1
 755 979 758 969 757 959 c 2
629 469 m 1
 405 469 l 1
 199 469 l 1
 161 492 l 1
 187 531 l 1
 411 531 l 1
 617 531 l 1
 655 508 l 1
 629 469 l 1
122 62 m 1
 83 2 l 1
 68 8 57 23 59 41 c 2
 99 500 l 1
 99 505 l 1
 138 482 l 1
 150 474 l 1
 150 474 l 1
 158 469 l 1
 140 265 l 1
 122 62 l 1
 122 62 l 1
EndSplineSet
EndChar

StartChar: Y
Encoding: 89 89 60
Width: 816
VWidth: 200
Flags: HW
LayerCount: 2
Fore
SplineSet
181 735 m 1
 163 531 l 1
 145 502 l 1
 101 529 l 1
 139 959 l 2
 139 964 141 968 143 972 c 2
 199 938 l 1
 181 735 l 1
671 498 m 1
 715 471 l 1
 677 41 l 2
 677 36 675 32 673 28 c 2
 617 62 l 1
 617 62 l 1
 635 265 l 1
 653 469 l 1
 653 469 l 1
 671 498 l 1
757 959 m 2
 717 500 l 1
 717 495 l 1
 683 515 l 1
 683 515 l 1
 673 522 l 1
 658 531 l 1
 676 735 l 1
 690 897 l 1
 749 986 l 1
 755 979 758 969 757 959 c 2
629 469 m 1
 405 469 l 1
 199 469 l 1
 161 492 l 1
 187 531 l 1
 411 531 l 1
 617 531 l 1
 655 508 l 1
 629 469 l 1
576 62 m 1
 660 10 l 1
 652 4 642 0 632 0 c 2
 364 0 l 1
 105 0 l 1
 146 62 l 1
 370 62 l 1
 576 62 l 1
EndSplineSet
EndChar

StartChar: Z
Encoding: 90 90 61
Width: 816
VWidth: 200
Flags: HW
LayerCount: 2
Fore
SplineSet
757 959 m 2
 717 500 l 1
 717 495 l 1
 683 515 l 1
 683 515 l 1
 673 522 l 1
 658 531 l 1
 676 735 l 1
 690 897 l 1
 749 986 l 1
 755 979 758 969 757 959 c 2
240 938 m 1
 156 990 l 1
 164 996 174 1000 184 1000 c 2
 452 1000 l 1
 720 1000 l 2
 725 1000 729 1000 733 998 c 2
 694 938 l 1
 694 938 l 1
 446 938 l 1
 240 938 l 1
576 62 m 1
 660 10 l 1
 652 4 642 0 632 0 c 2
 364 0 l 1
 105 0 l 1
 146 62 l 1
 370 62 l 1
 576 62 l 1
122 62 m 1
 83 2 l 1
 68 8 57 23 59 41 c 2
 99 500 l 1
 99 505 l 1
 138 482 l 1
 150 474 l 1
 150 474 l 1
 158 469 l 1
 140 265 l 1
 122 62 l 1
 122 62 l 1
EndSplineSet
EndChar

StartChar: hyphen
Encoding: 45 45 62
Width: 816
VWidth: 200
Flags: HW
LayerCount: 2
Fore
SplineSet
629 469 m 1
 405 469 l 1
 199 469 l 1
 161 492 l 1
 187 531 l 1
 411 531 l 1
 617 531 l 1
 655 508 l 1
 629 469 l 1
EndSplineSet
EndChar

StartChar: colon
Encoding: 58 58 63
Width: 200
VWidth: 0
Flags: HW
LayerCount: 2
Fore
SplineSet
222 693 m 0
 221 684 219 676 215 669 c 0
 211 662 206 655 200 649 c 0
 194 643 188 639 180 636 c 0
 172 633 164 631 155 631 c 0
 146 631 139 633 132 636 c 0
 125 639 118 643 113 649 c 0
 108 655 104 662 102 669 c 0
 100 676 98 684 99 693 c 0
 100 702 102 710 106 717 c 0
 110 724 115 730 121 736 c 0
 127 742 134 747 142 750 c 0
 150 753 157 754 166 754 c 0
 175 754 183 753 190 750 c 0
 197 747 203 742 208 736 c 0
 213 730 218 724 220 717 c 0
 222 710 223 702 222 693 c 0
186 281 m 0
 185 272 183 264 179 257 c 0
 175 250 170 243 164 237 c 0
 158 231 152 227 144 224 c 0
 136 221 128 219 119 219 c 0
 110 219 103 221 96 224 c 0
 89 227 82 231 77 237 c 0
 72 243 67 250 65 257 c 0
 63 264 62 272 63 281 c 0
 64 290 66 298 70 305 c 0
 74 312 79 318 85 324 c 0
 91 330 97 335 105 338 c 0
 113 341 121 342 130 342 c 0
 139 342 147 341 154 338 c 0
 161 335 167 330 172 324 c 0
 177 318 182 312 184 305 c 0
 186 298 187 290 186 281 c 0
EndSplineSet
EndChar

StartChar: period
Encoding: 46 46 64
Width: -44
VWidth: 0
Flags: HW
LayerCount: 2
Fore
SplineSet
18 62 m 0
 18 53 16 45 13 38 c 0
 10 31 6 24 0 18 c 0
 -6 12 -13 8 -20 5 c 0
 -27 2 -35 0 -44 0 c 0
 -53 0 -61 2 -68 5 c 0
 -75 8 -82 12 -88 18 c 0
 -94 24 -98 31 -101 38 c 0
 -104 45 -106 53 -106 62 c 0
 -106 71 -104 79 -101 86 c 0
 -98 93 -94 100 -88 106 c 0
 -82 112 -75 116 -68 119 c 0
 -61 122 -53 124 -44 124 c 0
 -35 124 -27 122 -20 119 c 0
 -13 116 -6 112 0 106 c 0
 6 100 10 93 13 86 c 0
 16 79 18 71 18 62 c 0
EndSplineSet
EndChar

